<svg xmlns="http://www.w3.org/2000/svg" width="16" height="15" fill="none"><path d="M7.402 1.927H6.229c-2.93 0-4.102 1.172-4.102 4.102v3.517c0 2.93 1.172 4.102 4.102 4.102h3.517c2.93 0 4.103-1.172 4.103-4.102V8.374" stroke="#fff" stroke-width="1.5" stroke-linecap="round" stroke-linejoin="round"/><path d="M10.355 2.524L5.737 7.143a1.59 1.59 0 00-.387.773l-.252 1.765c-.093.638.358 1.084.997.996l1.764-.252c.246-.035.592-.211.773-.387l4.619-4.618c.797-.797 1.172-1.723 0-2.896-1.172-1.172-2.098-.797-2.896 0zm-.662.663a4.187 4.187 0 002.896 2.895" stroke="#fff" stroke-width="1.5" stroke-miterlimit="10" stroke-linecap="round" stroke-linejoin="round"/></svg>