<svg width="13" height="16" fill="none" xmlns="http://www.w3.org/2000/svg"><path d="M6.312 6.211h5.4" stroke="#fff" stroke-width="1.5" stroke-linecap="round"/><path d="M2.287 6.07v-.123c.002-.42.035-.756.1-1.005.066-.25.162-.452.288-.606.126-.154.278-.293.456-.418.132-.096.25-.196.356-.299.104-.103.188-.217.25-.342a.958.958 0 00.093-.425.871.871 0 00-.106-.436.74.74 0 00-.285-.289.774.774 0 00-.392-.1.794.794 0 00-.394.104.79.79 0 00-.305.303.996.996 0 00-.128.493H.91c.012-.48.114-.876.309-1.189.194-.314.452-.549.773-.702C2.312.879 2.667.8 3.054.8c.425 0 .802.08 1.129.238a1.8 1.8 0 01.77.681c.186.298.279.657.279 1.078 0 .28-.042.53-.125.75a1.855 1.855 0 01-.344.576 2.72 2.72 0 01-.523.45c-.168.113-.307.23-.417.353a1.228 1.228 0 00-.24.425 2.04 2.04 0 00-.08.595v.122H2.287zm.635 2.305a.713.713 0 01-.548-.252.885.885 0 01-.222-.612.867.867 0 01.222-.606.707.707 0 011.084 0c.154.168.232.37.234.606a.916.916 0 01-.391.75.67.67 0 01-.379.114z" fill="#fff"/><path d="M1.991 10.54h9.722m-9.722 4.328h9.722" stroke="#fff" stroke-width="1.5" stroke-linecap="round"/></svg>