<svg xmlns="http://www.w3.org/2000/svg" width="16" height="16" fill="none"><path d="M6.471 13.952h3.787c3.156 0 4.418-1.262 4.418-4.418V5.747c0-3.156-1.262-4.419-4.418-4.419H6.471c-3.156 0-4.418 1.263-4.418 4.419v3.787c0 3.155 1.262 4.418 4.418 4.418z" stroke="#fff" stroke-width="1.5" stroke-linecap="round" stroke-linejoin="round"/><path d="M6.534 7.64v-.934c0-1.206.852-1.692 1.894-1.092l.808.467.808.467c1.041.6 1.041 1.584 0 2.184l-.808.467-.808.467c-1.042.6-1.894.108-1.894-1.092V7.64z" stroke="#fff" stroke-width="1.5" stroke-miterlimit="10" stroke-linecap="round" stroke-linejoin="round"/></svg>