<svg xmlns="http://www.w3.org/2000/svg" width="238" height="56" fill="none"><path d="M150.918 9.842l-26.044-8.315c-2.641-.843-5.463.607-6.304 3.24l-11.048 34.606c-.841 2.632.619 5.45 3.26 6.293l26.043 8.315c2.642.843 5.464-.607 6.305-3.24l11.048-34.606a5.011 5.011 0 00-3.26-6.293z" fill="#CCC"/><path d="M0 20.381h6.483l3.111 11.971 3.847-11.97h5.488l3.804 11.949 3.111-11.95h6.483l-5.964 18.13h-6.699l-3.457-10.437-3.523 10.437H6.03L0 20.381zm32.197 9.054c0-5.121 3.285-9.443 11.302-9.443s11.323 4.322 11.323 9.443c0 5.122-3.306 9.465-11.323 9.465s-11.302-4.322-11.302-9.465zM43.5 33.757c3.608 0 5.229-1.6 5.229-4.322 0-2.723-1.62-4.322-5.23-4.322-3.608 0-5.207 1.578-5.207 4.322 0 2.745 1.685 4.409 5.208 4.409v-.087zm13.59-13.376h10.805c3.976 0 7.671 1.448 7.671 6.31a5.64 5.64 0 01-3.112 5.467l4.452 6.353h-6.612l-3.63-5.446h-3.847v5.446h-5.813l.087-18.13zm10.546 8.363a1.836 1.836 0 002.16-1.923c0-1.189-.82-1.772-2.16-1.772h-4.733v3.695h4.733zm10.934-8.363h9.94c6.828 0 9.983 3.782 9.983 9.054 0 5.273-3.155 9.076-9.983 9.076h-9.94v-18.13zm9.55 13.399a4.322 4.322 0 100-8.644h-3.738v8.644h3.738zm12.361 3.391v-5.056a16.404 16.404 0 008.19 2.031c2.398 0 3.068-.28 3.068-.95 0-1.989-11.409-1.103-11.409-7.261 0-4.106 3.133-5.986 8.427-5.986a21.022 21.022 0 018.06 1.426v4.992a15.945 15.945 0 00-7.282-1.642c-2.463 0-3.068.28-3.068.864 0 1.966 11.496 1.318 11.496 7.066 0 4.797-3.393 6.267-8.968 6.267a18.844 18.844 0 01-8.514-1.75z" fill="#333"/><path d="M130.085 35.875h-11.042v-4.322l11.064-11.129h5.77V31.51h2.506v4.321h-2.506v2.637h-5.792v-2.593zm0-4.322V26.95l-4.624 4.603h4.624z" fill="#00B49C"/><path d="M139.377 20.381h6.483l3.111 11.971 3.847-11.97h5.489l3.803 11.949 3.111-11.95h6.483l-5.964 18.13h-6.634l-3.522-10.437-3.522 10.437h-6.656l-6.029-18.13zm32.089 9.054c0-5.121 3.306-9.443 11.302-9.443 7.995 0 11.323 4.322 11.323 9.443 0 5.122-3.306 9.465-11.323 9.465s-11.302-4.322-11.302-9.465zm11.302 4.322c3.608 0 5.229-1.6 5.229-4.322 0-2.723-1.621-4.322-5.229-4.322-3.609 0-5.208 1.578-5.208 4.322 0 2.745 1.642 4.409 5.208 4.409v-.087zm13.592-13.376h10.804c3.998 0 7.671 1.448 7.671 6.31a5.638 5.638 0 01-3.111 5.467l4.451 6.353h-6.612l-3.609-5.446h-3.868v5.446h-5.813l.087-18.13zm10.545 8.363a1.838 1.838 0 002.161-1.923c0-1.189-.821-1.772-2.161-1.772h-4.733v3.695h4.733zm20.55 3.133h-3.803v6.634h-5.835v-18.13h5.835v6.656h3.803l3.63-6.656h6.483l-5.273 8.795L238 38.51h-6.634l-3.911-6.634z" fill="#333"/></svg>