<svg xmlns="http://www.w3.org/2000/svg" width="93" height="22" fill="none"><path d="M58.972 3.846L48.795.596a1.958 1.958 0 00-2.463 1.267l-4.317 13.522a1.958 1.958 0 001.274 2.46l10.176 3.248a1.958 1.958 0 002.464-1.266l4.317-13.522a1.958 1.958 0 00-1.274-2.46z" fill="#CCC"/><path d="M0 7.964h2.533l1.216 4.678 1.503-4.678h2.145l1.486 4.67 1.216-4.67h2.533l-2.33 7.085H7.683l-1.35-4.079-1.376 4.08H2.356L0 7.964zm12.581 3.538c0-2.001 1.284-3.69 4.416-3.69 3.133 0 4.425 1.689 4.425 3.69S20.13 15.2 16.997 15.2c-3.132 0-4.416-1.688-4.416-3.698zm4.416 1.689c1.41 0 2.044-.625 2.044-1.69 0-1.063-.634-1.688-2.044-1.688-1.41 0-2.035.617-2.035 1.689s.66 1.723 2.035 1.723v-.034zm5.311-5.227h4.222c1.554 0 2.998.566 2.998 2.466a2.204 2.204 0 01-1.216 2.136l1.74 2.482h-2.584l-1.419-2.127h-1.503v2.128h-2.271l.034-7.085zm4.121 3.268a.72.72 0 00.844-.752c0-.464-.32-.692-.844-.692h-1.85v1.444h1.85zm4.273-3.268h3.884c2.668 0 3.9 1.478 3.9 3.538 0 2.06-1.232 3.546-3.9 3.546h-3.884V7.965zm3.732 5.235a1.689 1.689 0 100-3.377h-1.461v3.377h1.46zm4.83 1.326v-1.976c.979.54 2.082.813 3.2.794.937 0 1.199-.11 1.199-.372 0-.777-4.458-.43-4.458-2.837 0-1.604 1.224-2.339 3.293-2.339a8.216 8.216 0 013.15.557v1.951a6.232 6.232 0 00-2.846-.642c-.963 0-1.2.11-1.2.338 0 .768 4.493.515 4.493 2.761 0 1.875-1.326 2.449-3.504 2.449a7.364 7.364 0 01-3.327-.684z" fill="#fff"/><path d="M50.832 14.018h-4.315V12.33l4.323-4.348h2.255v4.332h.98V14h-.98v1.03h-2.263v-1.013zm0-1.689v-1.798l-1.807 1.798h1.807z" fill="#6479BD"/><path d="M54.462 7.964h2.534l1.216 4.678 1.502-4.678h2.145l1.486 4.67 1.216-4.67h2.533l-2.33 7.085h-2.592l-1.377-4.079-1.376 4.079h-2.6l-2.357-7.085zm12.539 3.538c0-2.001 1.292-3.69 4.417-3.69 3.124 0 4.424 1.689 4.424 3.69S74.55 15.2 71.418 15.2C68.285 15.2 67 13.512 67 11.502zm4.417 1.689c1.41 0 2.043-.625 2.043-1.69 0-1.063-.633-1.688-2.043-1.688-1.41 0-2.035.617-2.035 1.689s.641 1.723 2.035 1.723v-.034zm5.311-5.227h4.222c1.562 0 2.997.566 2.997 2.466a2.204 2.204 0 01-1.216 2.136l1.74 2.482h-2.584l-1.41-2.127h-1.511v2.128h-2.272l.034-7.085zm4.12 3.268a.72.72 0 00.845-.752c0-.464-.321-.692-.845-.692H79v1.444h1.85zm8.031 1.224h-1.487v2.593h-2.28V7.964h2.28v2.6h1.486l1.419-2.6h2.533l-2.06 3.437L93 15.049h-2.592l-1.529-2.593z" fill="#fff"/></svg>