<?xml version="1.0" encoding="utf-8"?><svg viewBox="0 0 85 46" xmlns="http://www.w3.org/2000/svg" xmlns:xlink="http://www.w3.org/1999/xlink"><style>:root>svg{display:none}:root>svg:target{display:block}</style><svg fill="none" viewBox="0 0 13 16" id="icon-arrow-next" xmlns="http://www.w3.org/2000/svg"><path opacity=".5" d="M13 8L0 16V0l13 8z" fill="currentColor"/></svg><svg fill="none" viewBox="0 0 19 9" id="icon-arrow-next-long" xmlns="http://www.w3.org/2000/svg"><path d="M18.486 4.77a.5.5 0 000-.708L15.305.88a.5.5 0 10-.708.707l2.829 2.829-2.829 2.828a.5.5 0 00.708.707l3.181-3.182zm-18.4.146h18.047v-1H.087v1z" fill="currentColor"/></svg><svg fill="none" viewBox="0 0 13 16" id="icon-arrow-prev" xmlns="http://www.w3.org/2000/svg"><path d="M0 8l13-8v16L0 8z" fill="#00B49C"/></svg><svg fill="none" viewBox="0 0 85 34" id="icon-back" xmlns="http://www.w3.org/2000/svg"><rect width="85" height="34" rx="10" fill="#6479BD"/><path d="M68.072 23.707L60.886 16.5l7.186-7.207" stroke="#fff" stroke-width="1.5" stroke-linecap="round" stroke-linejoin="round"/></svg><svg fill="none" viewBox="0 0 24 24" id="icon-exit" xmlns="http://www.w3.org/2000/svg"><path d="M8.9 7.56c.31-3.6 2.16-5.07 6.21-5.07h.13c4.47 0 6.26 1.79 6.26 6.26v6.52c0 4.47-1.79 6.26-6.26 6.26h-.13c-4.02 0-5.87-1.45-6.2-4.99M2 12h12.88" stroke="#00B49C" stroke-width="1.5" stroke-linecap="round" stroke-linejoin="round"/><path d="M12.65 8.65L16 12l-3.35 3.35" stroke="#00B49C" stroke-width="1.5" stroke-linecap="round" stroke-linejoin="round"/></svg><svg fill="none" viewBox="0 0 24 24" id="icon-eye" xmlns="http://www.w3.org/2000/svg"><path d="M12 20.27c3.53 0 6.82-2.08 9.11-5.68.9-1.41.9-3.78 0-5.19-2.29-3.6-5.58-5.68-9.11-5.68-3.53 0-6.82 2.08-9.11 5.68-.9 1.41-.9 3.78 0 5.19 2.29 3.6 5.58 5.68 9.11 5.68z" fill="#292D32"/><path d="M15.58 12c0 1.98-1.6 3.58-3.58 3.58S8.42 13.98 8.42 12s1.6-3.58 3.58-3.58 3.58 1.6 3.58 3.58z" stroke="#D9D9D9" stroke-width="1.5" stroke-linecap="round" stroke-linejoin="round"/></svg><svg fill="none" viewBox="0 0 15 15" id="icon-linkedin" xmlns="http://www.w3.org/2000/svg"><path d="M3.127 15H.425c-.146 0-.188-.035-.188-.185V5.163c0-.133.031-.182.174-.182h2.74c.175 0 .199.067.199.217v9.575c.003.174-.042.23-.223.227zM1.795 3.604A1.795 1.795 0 01.137 2.49 1.808 1.808 0 01.526.526a1.797 1.797 0 013.071 1.267 1.803 1.803 0 01-1.802 1.81zM14.996 14.79c0 .164-.045.206-.205.206h-2.702c-.16 0-.195-.049-.191-.199V9.795c.008-.42-.041-.839-.147-1.245a1.398 1.398 0 00-1.53-1.087c-1.07.056-1.625.587-1.76 1.675-.033.26-.049.52-.05.783v4.866c0 .164-.041.21-.205.21H5.483c-.146 0-.188-.04-.188-.186V5.173c0-.157.052-.195.202-.195h2.587c.157 0 .199.049.195.202v1.15c.21-.234.38-.471.593-.674a3.241 3.241 0 012.339-.923c.496-.01.991.05 1.47.178a2.868 2.868 0 012.04 2.154c.205.804.297 1.634.272 2.464.007 1.758 0 3.51.003 5.265v-.004z" fill="currentColor"/></svg><svg fill="none" viewBox="0 0 46 46" id="icon-play" xmlns="http://www.w3.org/2000/svg"><path d="M23 42.167c10.585 0 19.167-8.581 19.167-19.167 0-10.585-8.582-19.167-19.167-19.167S3.833 12.415 3.833 23c0 10.586 8.582 19.167 19.167 19.167z" fill="#D9D9D9" stroke="#333" stroke-width="1.5" stroke-linecap="round" stroke-linejoin="round"/><path d="M17.442 23v-2.837c0-3.66 2.587-5.136 5.75-3.316l2.453 1.419 2.453 1.418c3.163 1.821 3.163 4.811 0 6.632l-2.453 1.418-2.453 1.418c-3.163 1.821-5.75.326-5.75-3.315V23z" stroke="#333" stroke-width="1.5" stroke-miterlimit="10" stroke-linecap="round" stroke-linejoin="round"/><path d="M23 42.167c10.585 0 19.167-8.581 19.167-19.167 0-10.585-8.582-19.167-19.167-19.167S3.833 12.415 3.833 23c0 10.586 8.582 19.167 19.167 19.167z" stroke="#333" stroke-width="1.5" stroke-linecap="round" stroke-linejoin="round"/></svg><svg fill="none" viewBox="0 0 5 5" id="icon-question-sm" xmlns="http://www.w3.org/2000/svg"><circle cx="2.5" cy="2.5" r="2.5" fill="currentColor"/><path d="M2.276 3.889c0-.076.025-.14.074-.194.049-.055.12-.082.213-.082.092 0 .163.027.212.082a.276.276 0 01.073.194.287.287 0 01-.073.198c-.05.053-.12.08-.212.08-.093 0-.164-.027-.213-.08a.287.287 0 01-.074-.198zm-.61-2.195v-.046c0-.246.086-.444.257-.592.172-.148.405-.223.7-.223.296 0 .526.078.693.234.167.156.251.36.251.612a.87.87 0 01-.167.525 2.096 2.096 0 01-.336.372c-.133.114-.218.217-.254.309a.82.82 0 00-.05.291V3.2h-.435v-.023c0-.185.026-.332.078-.44.052-.11.152-.232.298-.365.128-.119.232-.227.312-.325.08-.1.12-.222.12-.367a.455.455 0 00-.127-.34c-.084-.085-.212-.127-.382-.127-.171 0-.302.038-.392.115a.397.397 0 00-.134.32v.047h-.431z" fill="#fff"/></svg><svg fill="none" viewBox="0 0 24 24" id="icon-questions" xmlns="http://www.w3.org/2000/svg"><path d="M17 18.43h-4l-4.45 2.96A.997.997 0 017 20.56v-2.13c-3 0-5-2-5-5v-6c0-3 2-5 5-5h10c3 0 5 2 5 5v6c0 3-2 5-5 5z" stroke="#00B49C" stroke-width="1.5" stroke-miterlimit="10" stroke-linecap="round" stroke-linejoin="round"/><path d="M12 11.36v-.21c0-.68.42-1.04.84-1.33.41-.28.82-.64.82-1.3 0-.92-.74-1.66-1.66-1.66-.92 0-1.66.74-1.66 1.66M11.995 13.75h.01" stroke="#00B49C" stroke-width="1.5" stroke-linecap="round" stroke-linejoin="round"/></svg><svg fill="none" viewBox="0 0 24 25" id="icon-restore" xmlns="http://www.w3.org/2000/svg"><path d="M21.736 12.5c0 5.52-4.262 10-9.513 10-5.252 0-8.458-5.56-8.458-5.56m0 0h4.3m-4.3 0v5M2.71 12.5c0-5.52 4.224-10 9.514-10 6.345 0 9.513 5.56 9.513 5.56m0 0v-5m0 5h-4.224" stroke="currentColor" stroke-width="3" stroke-linecap="round" stroke-linejoin="round"/></svg><svg fill="none" viewBox="0 0 11 10" id="icon-sign-in" xmlns="http://www.w3.org/2000/svg"><ellipse cx="5.551" cy="4.818" rx="4.565" ry="4.556" fill="currentColor"/><path fill-rule="evenodd" clip-rule="evenodd" d="M5.17 3.3H3.268v-.76h4.565v.76H5.93v3.639l1.771-1.768a.38.38 0 01.538.537L5.82 8.124a.38.38 0 01-.538 0L2.86 5.708a.38.38 0 11.538-.537L5.17 6.939v-3.64z" fill="#fff"/></svg><svg fill="none" viewBox="0 0 17 15" id="icon-telegram" xmlns="http://www.w3.org/2000/svg"><path fill-rule="evenodd" clip-rule="evenodd" d="M1.164 6.47c4.558-2.11 7.6-3.508 9.124-4.192C14.628.348 15.543.013 16.126 0c.218-.004.432.065.613.196.124.118.204.28.224.456.035.215.043.435.025.652-.233 2.64-1.25 9.04-1.772 11.983-.22 1.248-.653 1.665-1.07 1.709-.914.082-1.604-.64-2.478-1.253-1.38-.956-2.151-1.552-3.49-2.495-1.552-1.087-.552-1.683.338-2.652.233-.253 4.234-4.14 4.312-4.487a.333.333 0 00-.078-.292.34.34 0 00-.327-.026c-.143.026-2.33 1.583-6.593 4.652a2.845 2.845 0 01-1.694.666 10.614 10.614 0 01-2.45-.613c-.98-.33-1.76-.513-1.694-1.096.049-.304.44-.609 1.172-.93z" fill="currentColor"/></svg><svg fill="none" viewBox="0 0 14 13" id="icon-twitter" xmlns="http://www.w3.org/2000/svg"><path d="M8.331 5.506L13.541 0h-1.233L7.783 4.78 4.17 0H.003L5.47 7.226 0 13.012h1.22l4.807-5.06 3.804 5.06h4.166L8.33 5.506zM1.68.847h1.897l8.732 11.355h-1.897L1.68.847z" fill="currentColor"/></svg><svg fill="none" viewBox="0 0 23 24" id="icon-user" xmlns="http://www.w3.org/2000/svg"><path d="M17.384 21.62c-.843.26-1.84.38-3.009.38h-5.75c-1.17 0-2.166-.12-3.01-.38.212-2.6 2.77-4.65 5.885-4.65 3.115 0 5.673 2.05 5.884 4.65z" stroke="#00B49C" stroke-width="1.5" stroke-linecap="round" stroke-linejoin="round"/><path d="M14.375 2h-5.75C3.833 2 1.917 4 1.917 9v6c0 3.78 1.092 5.85 3.699 6.62.21-2.6 2.77-4.65 5.884-4.65 3.114 0 5.673 2.05 5.884 4.65 2.607-.77 3.7-2.84 3.7-6.62V9c0-5-1.917-7-6.709-7zM11.5 14.17c-1.898 0-3.43-1.61-3.43-3.59C8.07 8.6 9.601 7 11.5 7c1.898 0 3.43 1.6 3.43 3.58s-1.532 3.59-3.43 3.59z" stroke="#00B49C" stroke-width="1.5" stroke-linecap="round" stroke-linejoin="round"/><path d="M14.93 10.58c0 1.98-1.532 3.59-3.43 3.59-1.897 0-3.43-1.61-3.43-3.59C8.07 8.6 9.602 7 11.5 7c1.898 0 3.43 1.6 3.43 3.58z" stroke="#00B49C" stroke-width="1.5" stroke-linecap="round" stroke-linejoin="round"/></svg></svg>